# xmcd
#
# Track frame offsets:
#	150
#	1881
#	147211
#	154168
#	160909
#	184840
#	233719
#	278596
#
# Disc length: 4007 seconds
#
# Revision: 1
# Processed by: cddbd v1.5.2PL0 Copyright (c) Steve Scherf et al.
# Submitted via: audiograbber 1.83.01
#
DISCID=5d0fa508
DTITLE=Grateful Dead - 72-09-10 Hollywood Palladium, Hollywood CA
DYEAR=1900
DGENRE=
TTITLE0=Crowd Noise and Tuning
TTITLE1=Dark Star
TTITLE2=Drums
TTITLE3=Dark Star
TTITLE4=Jack Straw
TTITLE5=Sing Me Back Home
TTITLE6=Sugar Magnolia
TTITLE7=One More Saturday Night
EXTD=
EXTT0=
EXTT1=
EXTT2=
EXTT3=
EXTT4=
EXTT5=
EXTT6=
EXTT7=
PLAYORDER=
